<svg viewBox="0 0 512 512" xmlns="http://www.w3.org/2000/svg" role="img" aria-label="Sales Assistant avatar placeholder">
  <!-- Placeholder avatar (PA-POS-23). Temporary geometric stand-in; real illustrated art
       replaces this file — see public/avatars/personas/README.md for the design brief. -->
  <defs>
    <clipPath id="card"><rect x="16" y="16" width="480" height="480" rx="96"/></clipPath>
  </defs>
  <rect x="16" y="16" width="480" height="480" rx="96" fill="#0c1f20"/>
  <g clip-path="url(#card)">
    <circle cx="256" cy="404" r="176" fill="#0e2b28"/>
    <circle cx="256" cy="188" r="96" fill="#133f35"/>
  </g>
  <rect x="16" y="16" width="480" height="480" rx="96" fill="none" stroke="#1b654f" stroke-width="4"/>
  <text x="256" y="330" text-anchor="middle" font-family="Georgia, 'Times New Roman', serif" font-size="168" font-weight="700" fill="#34d399">SA</text>
  <g transform="translate(372,68)">
    <rect width="72" height="72" rx="20" fill="#10332d" stroke="#1b654f" stroke-width="3"/>
    <g transform="translate(10,10)"><path d="M40 14c0-5-6-8-12-8s-12 3-12 8 5 7 12 9 12 4 12 9-6 8-12 8-12-3-12-8" transform="translate(0,3) scale(0.82) translate(5,2)" stroke="#34d399" stroke-width="7" fill="none" stroke-linecap="round" stroke-linejoin="round"/><path d="M28 2v48" transform="translate(0,3) scale(0.82) translate(5,2)" stroke="#34d399" stroke-width="7" fill="none" stroke-linecap="round" stroke-linejoin="round"/></g>
  </g>
</svg>
