<svg xmlns="http://www.w3.org/2000/svg" viewBox="0 0 24 24" fill="none">
  <path fill="#F5F5F4" fill-rule="evenodd" clip-rule="evenodd" d="M12 1.8C6.3 1.8 1.8 6.4 1.8 12c0 4.5 2.9 8.4 7 9.7.5.1.7-.2.7-.5v-1.8c-2.9.6-3.5-1.2-3.5-1.2-.4-1.2-1.1-1.5-1.1-1.5-1-.6.1-.6.1-.6 1 .1 1.6 1.1 1.6 1.1.9 1.6 2.5 1.1 3.1.9.1-.7.4-1.1.7-1.4-2.3-.3-4.7-1.2-4.7-5.1 0-1.1.4-2 1-2.7-.1-.3-.4-1.3.1-2.7 0 0 .9-.3 2.8 1a9.6 9.6 0 0 1 5.2 0c1.9-1.3 2.8-1 2.8-1 .5 1.4.2 2.4.1 2.7.7.7 1 1.6 1 2.7 0 3.9-2.4 4.8-4.7 5.1.4.3.7 1 .7 2v2.9c0 .3.2.6.7.5a10.2 10.2 0 0 0 7-9.7c0-5.6-4.6-10.2-10.2-10.2Z"/>
</svg>
