<svg xmlns="http://www.w3.org/2000/svg" viewBox="0 0 24 24" fill="none">
  <path d="M12 2a7.2 7.2 0 0 0-7.2 7.2c0 5.4 6.3 12 6.9 12.6a.4.4 0 0 0 .6 0c.6-.6 6.9-7.2 6.9-12.6A7.2 7.2 0 0 0 12 2Z" fill="#34A853"/>
  <path d="M12 2a7.2 7.2 0 0 0-5.1 2.1l4.2 4.2A2.6 2.6 0 0 1 12 6.6c.7 0 1.4.3 1.9.8l4.1-4.1A7.2 7.2 0 0 0 12 2Z" fill="#4285F4"/>
  <path d="M6.9 4.1A7.2 7.2 0 0 0 4.8 9.2c0 1.4.5 2.9 1.2 4.4l5.1-5.1-4.2-4.4Z" fill="#FBBC05"/>
  <path d="M13.9 7.4a2.6 2.6 0 0 1-1.9 4.4 2.6 2.6 0 0 1-1.9-.8L6 15.6c1.7 3 4.1 5.5 5.7 7.2a.4.4 0 0 0 .6 0c.6-.6 6.9-7.2 6.9-12.6 0-1.9-.7-3.6-1.9-4.9l-3.4 2.1Z" fill="#EA4335"/>
  <circle cx="12" cy="9.2" r="2.6" fill="#fff"/>
</svg>
